<svg xmlns="http://www.w3.org/2000/svg" width="60" height="50" viewBox="0 0 60 50">
  <path fill="#FFFFFF" fill-rule="evenodd" d="M17.8235294,49.9991529 C7.96367774,49.9044544 0,41.8822355 0,32 C0,22.1177645 7.96367774,14.0955456 17.8235294,14.0008471 L17.8235294,49.9991529 Z M21,0 L39,0 L39,50 L21,50 L21,0 Z M42,23 C42,18.0294373 46.0283444,14 51,14 C55.9705627,14 60,18.0283444 60,23 C60,27.9705627 55.9716556,32 51,32 C46.0294373,32 42,27.9716556 42,23 Z M42,36 L60,36 L60,50 L42,50 L42,36 Z"/>
</svg>
